<svg width="473" height="154" viewBox="0 0 473 154" fill="none" xmlns="http://www.w3.org/2000/svg">
<rect x="9" y="8" width="137" height="137" rx="16" fill="white"/>
<path d="M77 88.6781L115.75 127.428H134.017L77 70.4111L19.9828 127.428H38.2498L77 88.6781Z" fill="url(#paint0_linear_2656_6609)"/>
<path d="M77 66.7592L115.75 105.508H134.017L77 48.4922L19.9828 105.508H38.2498L77 66.7592Z" fill="url(#paint1_linear_2656_6609)"/>
<path d="M77 44.8383L115.75 83.5885H134.017L77 26.5713L19.9828 83.5885H38.2498L77 44.8383Z" fill="url(#paint2_linear_2656_6609)"/>
<path d="M186.065 84.2738V106H171V41H193.909C198.485 41 202.407 41.5502 205.675 42.6506C208.973 43.7213 211.677 45.2084 213.787 47.1119C215.926 49.0153 217.501 51.2608 218.511 53.8483C219.522 56.4358 220.027 59.2315 220.027 62.2354C220.027 65.4772 219.507 68.4514 218.467 71.1579C217.427 73.8643 215.837 76.1842 213.698 78.1174C211.559 80.0506 208.84 81.5674 205.542 82.6678C202.273 83.7385 198.396 84.2738 193.909 84.2738H186.065ZM186.065 72.8977H193.909C197.831 72.8977 200.654 71.9609 202.377 70.0872C204.1 68.2134 204.962 65.5962 204.962 62.2354C204.962 60.7483 204.739 59.3951 204.294 58.1757C203.848 56.9563 203.165 55.9153 202.243 55.0528C201.352 54.1606 200.208 53.4765 198.812 53.0007C197.445 52.5248 195.811 52.2869 193.909 52.2869H186.065V72.8977Z" fill="white"/>
<path d="M242.908 81.954V106H227.844V41H248.97C253.665 41 257.661 41.4907 260.959 42.4722C264.287 43.4239 266.991 44.7623 269.071 46.4873C271.181 48.2123 272.711 50.2496 273.662 52.5992C274.612 54.9488 275.088 57.5065 275.088 60.2725C275.088 62.3841 274.806 64.3768 274.241 66.2505C273.676 68.1242 272.83 69.8641 271.701 71.4701C270.601 73.0464 269.234 74.4592 267.6 75.7083C265.996 76.9574 264.139 77.9835 262.029 78.7865C263.039 79.2921 263.975 79.9167 264.837 80.6603C265.728 81.4038 266.501 82.3109 267.154 83.3816L280.971 106H267.333C264.807 106 262.995 105.048 261.895 103.145L251.109 84.2738C250.634 83.4411 250.069 82.8463 249.416 82.4894C248.792 82.1325 247.9 81.954 246.741 81.954H242.908ZM242.908 71.5594H248.97C251.02 71.5594 252.758 71.3066 254.185 70.801C255.641 70.2656 256.829 69.5369 257.75 68.615C258.671 67.693 259.34 66.6223 259.756 65.4029C260.172 64.1537 260.38 62.8154 260.38 61.3878C260.38 58.5326 259.444 56.302 257.572 54.6959C255.73 53.0899 252.862 52.2869 248.97 52.2869H242.908V71.5594Z" fill="white"/>
<path d="M319.483 81.2848V106H304.418V81.2848L280.885 41H294.167C295.475 41 296.515 41.3123 297.287 41.9369C298.06 42.5317 298.684 43.305 299.159 44.2567L308.34 63.1723C309.083 64.6891 309.767 66.0869 310.391 67.3658C311.015 68.6447 311.564 69.9087 312.04 71.1579C312.485 69.879 313.02 68.6001 313.644 67.3212C314.268 66.0423 314.937 64.6593 315.65 63.1723L324.742 44.2567C324.92 43.87 325.158 43.4834 325.455 43.0968C325.782 42.7101 326.139 42.3681 326.525 42.0707C326.941 41.7435 327.401 41.4907 327.907 41.3123C328.441 41.1041 329.021 41 329.645 41H343.016L319.483 81.2848Z" fill="white"/>
<path d="M380.656 76.2883C381.25 77.4184 381.814 78.5932 382.349 79.8126C382.914 81.032 383.449 82.2812 383.954 83.5601C384.459 82.2514 384.994 80.9874 385.558 79.768C386.123 78.5189 386.702 77.3143 387.296 76.1544L403.966 43.3198C404.263 42.7547 404.56 42.3235 404.857 42.0261C405.184 41.6989 405.54 41.461 405.927 41.3123C406.313 41.1636 406.744 41.0744 407.219 41.0446C407.724 41.0149 408.304 41 408.957 41H420.456V106H407.175V68.615C407.175 66.8007 407.264 64.8378 407.442 62.7261L390.238 96.1407C389.703 97.1816 388.975 97.9698 388.054 98.5051C387.163 99.0405 386.138 99.3082 384.979 99.3082H382.929C381.77 99.3082 380.73 99.0405 379.809 98.5051C378.917 97.9698 378.204 97.1816 377.669 96.1407L360.376 62.6815C360.495 63.7225 360.584 64.7634 360.644 65.8044C360.703 66.8156 360.733 67.7525 360.733 68.615V106H347.451V41H358.95C359.604 41 360.168 41.0149 360.644 41.0446C361.149 41.0744 361.595 41.1636 361.981 41.3123C362.367 41.461 362.709 41.6989 363.006 42.0261C363.333 42.3235 363.645 42.7547 363.942 43.3198L380.656 76.2883Z" fill="white"/>
<path d="M473 41V52.5992H446.347V67.7673H466.76V78.9204H446.347V94.4008H473V106H431.194V41H473Z" fill="white"/>
<defs>
<linearGradient id="paint0_linear_2656_6609" x1="28.5503" y1="143.352" x2="114.075" y2="93.9744" gradientUnits="userSpaceOnUse">
<stop stop-color="#47A4EA"/>
<stop offset="0.5" stop-color="#44A3EA"/>
<stop offset="0.72" stop-color="#3DA3EC"/>
<stop offset="0.88" stop-color="#31A2EE"/>
<stop offset="1" stop-color="#22A2F2"/>
</linearGradient>
<linearGradient id="paint1_linear_2656_6609" x1="29.02" y1="121.161" x2="114.545" y2="71.7821" gradientUnits="userSpaceOnUse">
<stop stop-color="#1675F2"/>
<stop offset="0.48" stop-color="#1677F2"/>
<stop offset="0.69" stop-color="#187EF2"/>
<stop offset="0.84" stop-color="#1B8AF2"/>
<stop offset="0.97" stop-color="#209CF2"/>
<stop offset="1" stop-color="#22A2F2"/>
</linearGradient>
<linearGradient id="paint2_linear_2656_6609" x1="29.02" y1="99.24" x2="114.545" y2="49.8625" gradientUnits="userSpaceOnUse">
<stop stop-color="#0C52C1"/>
<stop offset="0.42" stop-color="#0C54C2"/>
<stop offset="0.6" stop-color="#0E5BC6"/>
<stop offset="0.73" stop-color="#1167CE"/>
<stop offset="0.85" stop-color="#1679D9"/>
<stop offset="0.94" stop-color="#1D90E7"/>
<stop offset="1" stop-color="#22A2F2"/>
</linearGradient>
</defs>
</svg>
