<svg width="512" height="154" viewBox="0 0 512 154" fill="none" xmlns="http://www.w3.org/2000/svg">
<path d="M77 88.6783L115.75 127.429H134.017L77 70.4114L19.9828 127.429H38.2498L77 88.6783Z" fill="url(#paint0_linear_2407_6026)"/>
<path d="M77 66.7589L115.75 105.508H134.017L77 48.4919L19.9828 105.508H38.2498L77 66.7589Z" fill="url(#paint1_linear_2407_6026)"/>
<path d="M77 44.8385L115.75 83.5887H134.017L77 26.5715L19.9828 83.5887H38.2498L77 44.8385Z" fill="url(#paint2_linear_2407_6026)"/>
<path d="M175.065 84.2738V106H160V41H182.909C187.485 41 191.407 41.5502 194.675 42.6506C197.973 43.7213 200.677 45.2084 202.787 47.1119C204.926 49.0153 206.501 51.2608 207.511 53.8483C208.522 56.4358 209.027 59.2315 209.027 62.2354C209.027 65.4772 208.507 68.4514 207.467 71.1579C206.427 73.8643 204.837 76.1842 202.698 78.1174C200.559 80.0506 197.84 81.5674 194.542 82.6678C191.273 83.7385 187.396 84.2738 182.909 84.2738H175.065ZM175.065 72.8977H182.909C186.831 72.8977 189.654 71.9609 191.377 70.0872C193.1 68.2134 193.962 65.5962 193.962 62.2354C193.962 60.7483 193.739 59.3951 193.294 58.1757C192.848 56.9563 192.165 55.9153 191.243 55.0528C190.352 54.1606 189.208 53.4765 187.812 53.0007C186.445 52.5248 184.811 52.2869 182.909 52.2869H175.065V72.8977Z" fill="#1675F2"/>
<path d="M231.908 81.954V106H216.844V41H237.97C242.665 41 246.661 41.4907 249.959 42.4722C253.287 43.4239 255.991 44.7623 258.071 46.4873C260.181 48.2123 261.711 50.2496 262.662 52.5992C263.612 54.9488 264.088 57.5065 264.088 60.2725C264.088 62.3841 263.806 64.3768 263.241 66.2505C262.676 68.1242 261.83 69.8641 260.701 71.4701C259.601 73.0464 258.234 74.4592 256.6 75.7083C254.996 76.9574 253.139 77.9835 251.029 78.7865C252.039 79.2921 252.975 79.9167 253.837 80.6603C254.728 81.4038 255.501 82.3109 256.154 83.3816L269.971 106H256.333C253.807 106 251.995 105.048 250.895 103.145L240.109 84.2738C239.634 83.4411 239.069 82.8463 238.416 82.4894C237.792 82.1325 236.9 81.954 235.741 81.954H231.908ZM231.908 71.5594H237.97C240.02 71.5594 241.758 71.3066 243.185 70.801C244.641 70.2656 245.829 69.5369 246.75 68.615C247.671 67.693 248.34 66.6223 248.756 65.4029C249.172 64.1537 249.38 62.8154 249.38 61.3878C249.38 58.5326 248.444 56.302 246.572 54.6959C244.73 53.0899 241.862 52.2869 237.97 52.2869H231.908V71.5594Z" fill="#1675F2"/>
<path d="M308.483 81.2848V106H293.418V81.2848L269.885 41H283.167C284.475 41 285.515 41.3123 286.287 41.9369C287.06 42.5317 287.684 43.305 288.159 44.2567L297.34 63.1723C298.083 64.6891 298.767 66.0869 299.391 67.3658C300.015 68.6447 300.564 69.9087 301.04 71.1579C301.485 69.879 302.02 68.6001 302.644 67.3212C303.268 66.0423 303.937 64.6593 304.65 63.1723L313.742 44.2567C313.92 43.87 314.158 43.4834 314.455 43.0968C314.782 42.7101 315.139 42.3681 315.525 42.0707C315.941 41.7435 316.401 41.4907 316.907 41.3123C317.441 41.1041 318.021 41 318.645 41H332.016L308.483 81.2848Z" fill="#1675F2"/>
<path d="M369.656 76.2883C370.25 77.4184 370.814 78.5932 371.349 79.8126C371.914 81.032 372.449 82.2812 372.954 83.5601C373.459 82.2514 373.994 80.9874 374.558 79.768C375.123 78.5189 375.702 77.3143 376.296 76.1544L392.966 43.3198C393.263 42.7547 393.56 42.3235 393.857 42.0261C394.184 41.6989 394.54 41.461 394.927 41.3123C395.313 41.1636 395.744 41.0744 396.219 41.0446C396.724 41.0149 397.304 41 397.957 41H409.456V106H396.175V68.615C396.175 66.8007 396.264 64.8378 396.442 62.7261L379.238 96.1407C378.703 97.1816 377.975 97.9698 377.054 98.5051C376.163 99.0405 375.138 99.3082 373.979 99.3082H371.929C370.77 99.3082 369.73 99.0405 368.809 98.5051C367.917 97.9698 367.204 97.1816 366.669 96.1407L349.376 62.6815C349.495 63.7225 349.584 64.7634 349.644 65.8044C349.703 66.8156 349.733 67.7525 349.733 68.615V106H336.451V41H347.95C348.604 41 349.168 41.0149 349.644 41.0446C350.149 41.0744 350.595 41.1636 350.981 41.3123C351.367 41.461 351.709 41.6989 352.006 42.0261C352.333 42.3235 352.645 42.7547 352.942 43.3198L369.656 76.2883Z" fill="#1675F2"/>
<path d="M462 41V52.5992H435.347V67.7673H455.76V78.9204H435.347V94.4008H462V106H420.194V41H462Z" fill="#1675F2"/>
<defs>
<linearGradient id="paint0_linear_2407_6026" x1="28.5503" y1="143.352" x2="114.075" y2="93.9747" gradientUnits="userSpaceOnUse">
<stop stop-color="#47A4EA"/>
<stop offset="0.5" stop-color="#44A3EA"/>
<stop offset="0.72" stop-color="#3DA3EC"/>
<stop offset="0.88" stop-color="#31A2EE"/>
<stop offset="1" stop-color="#22A2F2"/>
</linearGradient>
<linearGradient id="paint1_linear_2407_6026" x1="29.02" y1="121.161" x2="114.545" y2="71.7819" gradientUnits="userSpaceOnUse">
<stop stop-color="#1675F2"/>
<stop offset="0.48" stop-color="#1677F2"/>
<stop offset="0.69" stop-color="#187EF2"/>
<stop offset="0.84" stop-color="#1B8AF2"/>
<stop offset="0.97" stop-color="#209CF2"/>
<stop offset="1" stop-color="#22A2F2"/>
</linearGradient>
<linearGradient id="paint2_linear_2407_6026" x1="29.02" y1="99.2403" x2="114.545" y2="49.8628" gradientUnits="userSpaceOnUse">
<stop stop-color="#0C52C1"/>
<stop offset="0.42" stop-color="#0C54C2"/>
<stop offset="0.6" stop-color="#0E5BC6"/>
<stop offset="0.73" stop-color="#1167CE"/>
<stop offset="0.85" stop-color="#1679D9"/>
<stop offset="0.94" stop-color="#1D90E7"/>
<stop offset="1" stop-color="#22A2F2"/>
</linearGradient>
</defs>
</svg>
