<svg width="471" height="164" viewBox="0 0 471 164" fill="none" xmlns="http://www.w3.org/2000/svg">
<path d="M86.5 100.99L145.287 164H173L86.5 71.2864L0 164H27.7125L86.5 100.99Z" fill="url(#paint0_linear_2456_17803)"/>
<path d="M86.5 65.3471L145.287 128.355H173L86.5 35.6438L0 128.355H27.7125L86.5 65.3471Z" fill="url(#paint1_linear_2456_17803)"/>
<path d="M86.5 29.7033L145.287 92.7137H173L86.5 0L0 92.7137H27.7125L86.5 29.7033Z" fill="url(#paint2_linear_2456_17803)"/>
<path d="M210.445 93.52V113H196.925V54.72H217.485C221.592 54.72 225.112 55.2133 228.045 56.2C231.005 57.16 233.432 58.4933 235.325 60.2C237.245 61.9067 238.658 63.92 239.565 66.24C240.472 68.56 240.925 71.0667 240.925 73.76C240.925 76.6667 240.458 79.3333 239.525 81.76C238.592 84.1867 237.165 86.2667 235.245 88C233.325 89.7333 230.885 91.0933 227.925 92.08C224.992 93.04 221.512 93.52 217.485 93.52H210.445ZM210.445 83.32H217.485C221.005 83.32 223.538 82.48 225.085 80.8C226.632 79.12 227.405 76.7733 227.405 73.76C227.405 72.4267 227.205 71.2133 226.805 70.12C226.405 69.0267 225.792 68.0933 224.965 67.32C224.165 66.52 223.138 65.9067 221.885 65.48C220.658 65.0533 219.192 64.84 217.485 64.84H210.445V83.32ZM261.461 91.44V113H247.941V54.72H266.901C271.114 54.72 274.701 55.16 277.661 56.04C280.647 56.8933 283.074 58.0933 284.941 59.64C286.834 61.1867 288.207 63.0133 289.061 65.12C289.914 67.2267 290.341 69.52 290.341 72C290.341 73.8933 290.087 75.68 289.581 77.36C289.074 79.04 288.314 80.6 287.301 82.04C286.314 83.4533 285.087 84.72 283.621 85.84C282.181 86.96 280.514 87.88 278.621 88.6C279.527 89.0533 280.367 89.6133 281.141 90.28C281.941 90.9467 282.634 91.76 283.221 92.72L295.621 113H283.381C281.114 113 279.487 112.147 278.501 110.44L268.821 93.52C268.394 92.7733 267.887 92.24 267.301 91.92C266.741 91.6 265.941 91.44 264.901 91.44H261.461ZM261.461 82.12H266.901C268.741 82.12 270.301 81.8933 271.581 81.44C272.887 80.96 273.954 80.3067 274.781 79.48C275.607 78.6533 276.207 77.6933 276.581 76.6C276.954 75.48 277.141 74.28 277.141 73C277.141 70.44 276.301 68.44 274.621 67C272.967 65.56 270.394 64.84 266.901 64.84H261.461V82.12ZM330.184 90.84V113H316.664V90.84L295.544 54.72H307.464C308.637 54.72 309.57 55 310.264 55.56C310.957 56.0933 311.517 56.7867 311.944 57.64L320.184 74.6C320.85 75.96 321.464 77.2133 322.024 78.36C322.584 79.5067 323.077 80.64 323.504 81.76C323.904 80.6133 324.384 79.4667 324.944 78.32C325.504 77.1733 326.104 75.9333 326.744 74.6L334.904 57.64C335.064 57.2933 335.277 56.9467 335.544 56.6C335.837 56.2533 336.157 55.9467 336.504 55.68C336.877 55.3867 337.29 55.16 337.744 55C338.224 54.8133 338.744 54.72 339.304 54.72H351.304L330.184 90.84ZM385.084 86.36C385.618 87.3733 386.124 88.4267 386.604 89.52C387.111 90.6133 387.591 91.7333 388.044 92.88C388.498 91.7067 388.978 90.5733 389.484 89.48C389.991 88.36 390.511 87.28 391.044 86.24L406.004 56.8C406.271 56.2933 406.538 55.9067 406.804 55.64C407.098 55.3467 407.418 55.1333 407.764 55C408.111 54.8667 408.498 54.7867 408.924 54.76C409.378 54.7333 409.898 54.72 410.484 54.72H420.804V113H408.884V79.48C408.884 77.8533 408.964 76.0933 409.124 74.2L393.684 104.16C393.204 105.093 392.551 105.8 391.724 106.28C390.924 106.76 390.004 107 388.964 107H387.124C386.084 107 385.151 106.76 384.324 106.28C383.524 105.8 382.884 105.093 382.404 104.16L366.884 74.16C366.991 75.0933 367.071 76.0267 367.124 76.96C367.178 77.8667 367.204 78.7067 367.204 79.48V113H355.284V54.72H365.604C366.191 54.72 366.698 54.7333 367.124 54.76C367.578 54.7867 367.978 54.8667 368.324 55C368.671 55.1333 368.978 55.3467 369.244 55.64C369.538 55.9067 369.818 56.2933 370.084 56.8L385.084 86.36ZM467.961 54.72V65.12H444.041V78.72H462.361V88.72H444.041V102.6H467.961V113H430.441V54.72H467.961Z" fill="#1675F2"/>
<defs>
<linearGradient id="paint0_linear_2456_17803" x1="12.9977" y1="189.893" x2="147.089" y2="117.664" gradientUnits="userSpaceOnUse">
<stop stop-color="#47A4EA"/>
<stop offset="0.5" stop-color="#44A3EA"/>
<stop offset="0.72" stop-color="#3DA3EC"/>
<stop offset="0.88" stop-color="#31A2EE"/>
<stop offset="1" stop-color="#22A2F2"/>
</linearGradient>
<linearGradient id="paint1_linear_2456_17803" x1="13.7103" y1="153.808" x2="147.802" y2="81.5772" gradientUnits="userSpaceOnUse">
<stop stop-color="#1675F2"/>
<stop offset="0.48" stop-color="#1677F2"/>
<stop offset="0.69" stop-color="#187EF2"/>
<stop offset="0.84" stop-color="#1B8AF2"/>
<stop offset="0.97" stop-color="#209CF2"/>
<stop offset="1" stop-color="#22A2F2"/>
</linearGradient>
<linearGradient id="paint2_linear_2456_17803" x1="13.7103" y1="118.164" x2="147.802" y2="45.9354" gradientUnits="userSpaceOnUse">
<stop stop-color="#0C52C1"/>
<stop offset="0.42" stop-color="#0C54C2"/>
<stop offset="0.6" stop-color="#0E5BC6"/>
<stop offset="0.73" stop-color="#1167CE"/>
<stop offset="0.85" stop-color="#1679D9"/>
<stop offset="0.94" stop-color="#1D90E7"/>
<stop offset="1" stop-color="#22A2F2"/>
</linearGradient>
</defs>
</svg>
